<mxfile host="app.diagrams.net" modified="2021-08-14T16:53:00.344Z" agent="5.0 (Macintosh; Intel Mac OS X 10_15_7) AppleWebKit/537.36 (KHTML, like Gecko) Chrome/92.0.4515.131 Safari/537.36" etag="Idy7lQJSPa-tiQz83sMM" version="14.8.0" type="github">
  <diagram id="DGArYeHjDCbKbnTOZ7g6" name="第 1 页">
    <mxGraphModel dx="946" dy="589" grid="1" gridSize="10" guides="1" tooltips="1" connect="1" arrows="1" fold="1" page="1" pageScale="1" pageWidth="2339" pageHeight="3300" math="0" shadow="0">
      <root>
        <mxCell id="0" />
        <mxCell id="1" parent="0" />
        <mxCell id="Mbf6pvUidri9efbkmDm7-3" value="" style="edgeStyle=orthogonalEdgeStyle;orthogonalLoop=1;jettySize=auto;html=1;sketch=1;curved=1;strokeColor=#60E696;fontColor=#095C86;" edge="1" parent="1" source="Mbf6pvUidri9efbkmDm7-1" target="Mbf6pvUidri9efbkmDm7-2">
          <mxGeometry relative="1" as="geometry">
            <Array as="points">
              <mxPoint x="360" y="150" />
            </Array>
          </mxGeometry>
        </mxCell>
        <mxCell id="Mbf6pvUidri9efbkmDm7-1" value="&lt;div&gt;&lt;span&gt;sdfasdf sf sdf&amp;nbsp;&lt;/span&gt;&lt;/div&gt;" style="whiteSpace=wrap;html=1;sketch=1;rounded=1;fillColor=#F694C1;strokeColor=#AF45ED;fontColor=#095C86;align=left;" vertex="1" parent="1">
          <mxGeometry x="80" y="120" width="100" height="70" as="geometry" />
        </mxCell>
        <mxCell id="Mbf6pvUidri9efbkmDm7-2" value="" style="whiteSpace=wrap;html=1;sketch=1;rounded=1;fillColor=#F694C1;strokeColor=#AF45ED;fontColor=#095C86;" vertex="1" parent="1">
          <mxGeometry x="310" y="230" width="100" height="70" as="geometry" />
        </mxCell>
      </root>
    </mxGraphModel>
  </diagram>
</mxfile>
